<?xml version="1.0" encoding="UTF-8" standalone="no"?>
<!-- Created with Inkscape (http://www.inkscape.org/) -->

<svg
   xmlns:dc="http://purl.org/dc/elements/1.1/"
   xmlns:cc="http://creativecommons.org/ns#"
   xmlns:rdf="http://www.w3.org/1999/02/22-rdf-syntax-ns#"
   xmlns:svg="http://www.w3.org/2000/svg"
   xmlns="http://www.w3.org/2000/svg"
   xmlns:sodipodi="http://sodipodi.sourceforge.net/DTD/sodipodi-0.dtd"
   xmlns:inkscape="http://www.inkscape.org/namespaces/inkscape"
   width="400"
   height="80"
   id="svg4040"
   version="1.1"
   inkscape:version="0.48.4 r9939"
   sodipodi:docname="name-large.svg"
   inkscape:export-filename="/home/ted/Documents/anoano/name-large-400.jpg.png"
   inkscape:export-xdpi="90"
   inkscape:export-ydpi="90">
  <defs
     id="defs4042">
    <clipPath
       clipPathUnits="userSpaceOnUse"
       id="clipPath3874">
      <rect
         style="opacity:0.8"
         id="rect3876"
         width="320"
         height="64"
         x="126.21138"
         y="-221.59296"
         transform="scale(1,-1)" />
    </clipPath>
    <clipPath
       clipPathUnits="userSpaceOnUse"
       id="clipPath3053">
      <path
         inkscape:connector-curvature="0"
         d="m 0,612.288 858.898,0 L 858.898,0 0,0 0,612.288 z"
         id="path3055" />
    </clipPath>
  </defs>
  <sodipodi:namedview
     id="base"
     pagecolor="#ffffff"
     bordercolor="#666666"
     borderopacity="1.0"
     inkscape:pageopacity="0.0"
     inkscape:pageshadow="2"
     inkscape:zoom="2.84"
     inkscape:cx="200"
     inkscape:cy="25.915493"
     inkscape:document-units="px"
     inkscape:current-layer="layer1"
     showgrid="false"
     inkscape:window-width="1301"
     inkscape:window-height="744"
     inkscape:window-x="65"
     inkscape:window-y="24"
     inkscape:window-maximized="1" />
  <metadata
     id="metadata4045">
    <rdf:RDF>
      <cc:Work
         rdf:about="">
        <dc:format>image/svg+xml</dc:format>
        <dc:type
           rdf:resource="http://purl.org/dc/dcmitype/StillImage" />
        <dc:title></dc:title>
      </cc:Work>
    </rdf:RDF>
  </metadata>
  <g
     inkscape:label="Layer 1"
     inkscape:groupmode="layer"
     id="layer1"
     transform="translate(0,-972.36218)">
    <g
       transform="matrix(1.25,0,0,-1.25,-157.76423,1249.3534)"
       id="g3049"
       clip-path="url(#clipPath3874)">
      <g
         id="g3051"
         clip-path="url(#clipPath3053)">
        <g
           id="g3057"
           transform="translate(251.3955,371.9229)">
          <path
             inkscape:connector-curvature="0"
             d="m 0,0 c 0,-1.396 -1.278,-3.528 -3.725,-3.528 -1.296,0 -3.646,0.624 -3.646,2.986 l 0,5.799 0,3.365 c 0,0.954 1.028,2.556 3.646,2.556 2.104,0 3.732,-1.186 3.732,-2.593 C 0.007,7.435 0,3.792 0,3.376 L 0,0 z m 1.744,8.242 c 0,1.41 -0.596,4.478 -5.506,4.478 -3.927,0 -5.212,-2.692 -5.212,-3.866 0,-0.955 -0.048,-4.551 -0.048,-4.772 0,-0.22 0.073,-5.077 0.073,-5.689 0,-1.174 1.345,-3.352 5.077,-3.352 2.876,0 3.842,1.48 3.928,1.615 0.086,0.135 0.22,0.086 0.22,-0.025 l 0,-1.027 c 0,-0.27 0.404,-0.379 0.746,-0.379 0.342,0 0.71,0.134 0.71,0.359 0,0.16 0.012,11.802 0.012,12.658"
             style="fill:#332d2b;fill-opacity:1;fill-rule:nonzero;stroke:none"
             id="path3059" />
        </g>
        <g
           id="g3061"
           transform="translate(257.4634,367.521)">
          <path
             inkscape:connector-curvature="0"
             d="m 0,0 c 0,-0.262 -0.546,-0.396 -0.803,-0.396 -0.257,0 -0.811,0.121 -0.811,0.396 l 0,12.944 c 0,1.871 1.762,4.178 5.267,4.178 3.505,0 5.505,-2.206 5.505,-4.345 l 0,-12.771 c 0,-0.238 -0.573,-0.367 -0.866,-0.367 -0.293,0 -0.872,0.11 -0.872,0.379 0,0.201 -0.04,11.659 -0.04,12.614 0,0.953 -0.626,3.046 -3.608,3.046 -2.66,0 -3.735,-1.744 -3.735,-2.79 C 0.037,11.842 0,0 0,0"
             style="fill:#332d2b;fill-opacity:1;fill-rule:nonzero;stroke:none"
             id="path3063" />
        </g>
        <g
           id="g3065"
           transform="translate(278.7749,371.625)">
          <path
             inkscape:connector-curvature="0"
             d="m 0,0 c 0,-1.542 -1.374,-3.205 -3.833,-3.205 -2.459,0 -3.731,1.957 -3.731,2.936 l 0,8.687 c 0,1.786 1.565,3.096 3.731,3.096 C -1.79,11.514 0,10.301 0,8.1 L 0,0 z m -3.772,13.018 c -3.939,0 -5.407,-2.472 -5.407,-4.625 0,-1.322 0.097,-9.078 0.097,-9.078 0,-2.985 3.243,-4.038 5.53,-4.038 1.958,0 5.139,1.371 5.139,4.136 l 0,8.907 c 0,2.52 -1.982,4.698 -5.359,4.698"
             style="fill:#332d2b;fill-opacity:1;fill-rule:nonzero;stroke:none"
             id="path3067" />
        </g>
        <g
           id="g3069"
           transform="translate(295.6074,371.625)">
          <path
             inkscape:connector-curvature="0"
             d="m 0,0 c 0,-1.126 -1.542,-3.083 -3.756,-3.083 -2.215,0 -3.673,1.346 -3.673,2.741 l 0,8.955 c 0,1.567 1.359,2.912 3.673,2.912 1.7,0 3.756,-0.832 3.756,-3.181 L 0,0 z m -3.573,13.018 c -3.891,0 -5.506,-1.933 -5.506,-4.062 l 0,-9.665 c 0,-2.325 2.716,-4.014 5.286,-4.014 2.569,0 3.523,1.567 3.646,1.689 0.122,0.122 0.171,0.098 0.171,-0.025 l 0,-1.11 c 0,-0.197 0.563,-0.309 0.783,-0.309 0.22,0 0.759,0.099 0.759,0.318 l 0,12.896 c 0,2.863 -2.375,4.282 -5.139,4.282"
             style="fill:#332d2b;fill-opacity:1;fill-rule:nonzero;stroke:none"
             id="path3071" />
        </g>
        <g
           id="g3073"
           transform="translate(305.2715,384.6426)">
          <path
             inkscape:connector-curvature="0"
             d="m 0,0 c 2.766,0 5.458,-1.37 5.458,-4.992 l 0,-12.137 c 0,-0.294 -0.628,-0.391 -0.873,-0.391 -0.244,0 -0.806,0.13 -0.806,0.449 l 0,12.007 c 0,1.222 -0.26,3.626 -3.662,3.626 -3.401,0 -3.729,-2.697 -3.729,-3.529 l 0,-12.137 c 0,-0.295 -0.597,-0.416 -0.867,-0.416 -0.27,0 -0.806,0.153 -0.806,0.447 l 0,12.106 C -5.285,-1.908 -3.327,0 0,0"
             style="fill:#332d2b;fill-opacity:1;fill-rule:nonzero;stroke:none"
             id="path3075" />
        </g>
        <g
           id="g3077"
           transform="translate(323.0376,371.4785)">
          <path
             inkscape:connector-curvature="0"
             d="m 0,0 c 0,-1.566 -1.885,-2.986 -3.879,-2.986 -1.994,0 -3.829,1.298 -3.829,2.888 l 0,8.662 c 0,1.64 1.443,3.132 3.829,3.132 C -1.982,11.696 0,10.326 0,8.564 L 0,0 z m -3.745,13.164 c -3.303,0 -5.579,-2.275 -5.579,-4.575 l 0,-8.589 c 0,-2.325 2.349,-4.356 5.457,-4.356 3.108,0 5.432,1.689 5.432,4.356 l 0,8.589 c 0,2.275 -2.349,4.575 -5.31,4.575"
             style="fill:#332d2b;fill-opacity:1;fill-rule:nonzero;stroke:none"
             id="path3079" />
        </g>
        <g
           id="g3081"
           transform="translate(209.1377,453.6294)">
          <path
             inkscape:connector-curvature="0"
             d="m 0,0 c 0,-1.395 -1.278,-3.527 -3.725,-3.527 -1.297,0 -3.646,0.624 -3.646,2.985 l 0,5.799 0,3.365 c 0,0.955 1.028,2.557 3.646,2.557 2.104,0 3.731,-1.186 3.731,-2.594 C 0.006,7.436 0,3.793 0,3.377 L 0,0 z m 1.744,8.243 c 0,1.41 -0.596,4.478 -5.506,4.478 -3.927,0 -5.212,-2.691 -5.212,-3.867 0,-0.954 -0.049,-4.55 -0.049,-4.771 0,-0.22 0.074,-5.077 0.074,-5.689 0,-1.174 1.345,-3.352 5.077,-3.352 2.875,0 3.842,1.48 3.928,1.614 0.085,0.135 0.219,0.087 0.219,-0.024 l 0,-1.028 c 0,-0.269 0.404,-0.378 0.746,-0.378 0.344,0 0.71,0.133 0.71,0.358 0,0.16 0.013,11.803 0.013,12.659"
             style="fill:#332d2b;fill-opacity:1;fill-rule:nonzero;stroke:none"
             id="path3083" />
        </g>
        <g
           id="g3085"
           transform="translate(215.2056,449.228)">
          <path
             inkscape:connector-curvature="0"
             d="m 0,0 c 0,-0.262 -0.546,-0.396 -0.804,-0.396 -0.257,0 -0.81,0.121 -0.81,0.396 l 0,12.944 c 0,1.871 1.761,4.178 5.267,4.178 3.505,0 5.505,-2.206 5.505,-4.344 l 0,-12.772 c 0,-0.239 -0.573,-0.367 -0.866,-0.367 -0.294,0 -0.872,0.11 -0.872,0.379 0,0.202 -0.04,11.66 -0.04,12.614 0,0.954 -0.626,3.047 -3.608,3.047 -2.661,0 -3.736,-1.744 -3.736,-2.791 C 0.036,11.842 0,0 0,0"
             style="fill:#332d2b;fill-opacity:1;fill-rule:nonzero;stroke:none"
             id="path3087" />
        </g>
        <g
           id="g3089"
           transform="translate(236.5171,453.332)">
          <path
             inkscape:connector-curvature="0"
             d="m 0,0 c 0,-1.541 -1.375,-3.205 -3.833,-3.205 -2.46,0 -3.731,1.958 -3.731,2.936 l 0,8.687 c 0,1.787 1.565,3.096 3.731,3.096 C -1.79,11.514 0,10.302 0,8.1 L 0,0 z m -3.772,13.018 c -3.94,0 -5.408,-2.472 -5.408,-4.624 0,-1.322 0.097,-9.079 0.097,-9.079 0,-2.985 3.243,-4.037 5.531,-4.037 1.958,0 5.138,1.37 5.138,4.136 l 0,8.906 c 0,2.52 -1.981,4.698 -5.358,4.698"
             style="fill:#332d2b;fill-opacity:1;fill-rule:nonzero;stroke:none"
             id="path3091" />
        </g>
        <g
           id="g3093"
           transform="translate(253.3481,453.332)">
          <path
             inkscape:connector-curvature="0"
             d="m 0,0 c 0,-1.125 -1.542,-3.083 -3.756,-3.083 -2.215,0 -3.672,1.346 -3.672,2.741 l 0,8.956 c 0,1.566 1.36,2.911 3.672,2.911 1.7,0 3.756,-0.831 3.756,-3.18 L 0,0 z m -3.572,13.018 c -3.891,0 -5.506,-1.933 -5.506,-4.062 l 0,-9.665 c 0,-2.325 2.716,-4.013 5.285,-4.013 2.569,0 3.524,1.566 3.646,1.688 0.122,0.122 0.171,0.098 0.171,-0.025 l 0,-1.111 c 0,-0.195 0.563,-0.308 0.783,-0.308 0.221,0 0.759,0.098 0.759,0.319 l 0,12.895 c 0,2.863 -2.374,4.282 -5.138,4.282"
             style="fill:#332d2b;fill-opacity:1;fill-rule:nonzero;stroke:none"
             id="path3095" />
        </g>
        <g
           id="g3097"
           transform="translate(263.0137,466.3501)">
          <path
             inkscape:connector-curvature="0"
             d="m 0,0 c 2.765,0 5.457,-1.371 5.457,-4.992 l 0,-12.137 c 0,-0.294 -0.627,-0.391 -0.873,-0.391 -0.244,0 -0.806,0.131 -0.806,0.449 l 0,12.006 c 0,1.223 -0.26,3.628 -3.661,3.628 -3.402,0 -3.73,-2.699 -3.73,-3.53 l 0,-12.138 c 0,-0.294 -0.598,-0.415 -0.867,-0.415 -0.269,0 -0.806,0.153 -0.806,0.446 l 0,12.107 C -5.286,-1.909 -3.328,0 0,0"
             style="fill:#332d2b;fill-opacity:1;fill-rule:nonzero;stroke:none"
             id="path3099" />
        </g>
        <g
           id="g3101"
           transform="translate(280.7788,453.1855)">
          <path
             inkscape:connector-curvature="0"
             d="m 0,0 c 0,-1.566 -1.885,-2.985 -3.878,-2.985 -1.995,0 -3.83,1.297 -3.83,2.887 l 0,8.662 c 0,1.64 1.443,3.133 3.83,3.133 C -1.982,11.697 0,10.326 0,8.564 L 0,0 z m -3.744,13.165 c -3.303,0 -5.58,-2.276 -5.58,-4.576 l 0,-8.589 c 0,-2.325 2.35,-4.355 5.458,-4.355 3.108,0 5.432,1.688 5.432,4.355 l 0,8.589 c 0,2.276 -2.35,4.576 -5.31,4.576"
             style="fill:#332d2b;fill-opacity:1;fill-rule:nonzero;stroke:none"
             id="path3103" />
        </g>
        <g
           id="g3105"
           transform="translate(300.6528,453.5522)">
          <path
             inkscape:connector-curvature="0"
             d="m 0,0 c 0,-1.149 -1.419,-3.573 -4.16,-3.573 -2.741,0 -3.255,1.542 -3.255,2.424 l 0,9.566 c 0,2.031 1.763,2.913 3.707,2.913 C -1.786,11.33 0,10.326 0,8.369 L 0,0 z m -3.769,12.798 c -2.813,0 -5.309,-1.346 -5.309,-4.503 l 0,-9.959 c 0,-2.08 2.446,-3.548 4.992,-3.548 2.544,0 3.865,1.713 3.914,1.86 0.049,0.147 0.221,0.22 0.221,-0.049 l 0,-4.576 c 0,0 0.024,-3.304 -3.757,-3.304 -3.779,0 -3.681,3.098 -3.681,3.367 0,0.269 -0.221,0.549 -0.857,0.549 -0.636,0 -0.832,-0.391 -0.832,-0.587 l 0,-0.343 c 0,-2.603 2.374,-4.771 5.309,-4.771 3.23,0 5.433,2.107 5.433,4.944 l 0,16.344 c 0,3.255 -2.619,4.576 -5.433,4.576"
             style="fill:#332d2b;fill-opacity:1;fill-rule:nonzero;stroke:none"
             id="path3107" />
        </g>
        <g
           id="g3109"
           transform="translate(314.4785,454.2378)">
          <path
             inkscape:connector-curvature="0"
             d="m 0,0 c 0,-1.566 -1.077,-4.429 -4.43,-4.429 -1.811,0 -3.181,1.028 -3.181,2.692 l 0,9.591 c 0,1.225 1.42,2.791 3.805,2.791 C -1.445,10.645 0,9.274 0,7.977 L 0,0 z m -3.72,12.112 c -3.792,0 -5.579,-2.227 -5.579,-4.184 l 0,-10.179 c 0,-1.444 1.615,-3.646 4.869,-3.646 3.255,0 4.136,1.639 4.258,1.859 0.122,0.221 0.269,0.196 0.269,-0.048 l 0,-1.285 c 0,-0.27 0.49,-0.403 0.808,-0.403 0.318,0 0.783,0.131 0.783,0.352 l 0,13.399 c 0,2.374 -2.398,4.135 -5.408,4.135"
             style="fill:#332d2b;fill-opacity:1;fill-rule:nonzero;stroke:none"
             id="path3111" />
        </g>
        <g
           id="g3113"
           transform="translate(321.5703,448.7734)">
          <path
             inkscape:connector-curvature="0"
             d="m 0,0 c 0,-0.245 -0.489,-0.433 -0.855,-0.433 -0.369,0 -0.882,0.171 -0.882,0.465 l 0,22.098 c 0,0.392 0.563,0.518 0.868,0.518 C -0.562,22.648 0,22.489 0,22.146 L 0,0 z"
             style="fill:#332d2b;fill-opacity:1;fill-rule:nonzero;stroke:none"
             id="path3115" />
        </g>
        <g
           id="g3117"
           transform="translate(326.314,462.313)">
          <path
             inkscape:connector-curvature="0"
             d="m 0,0 c 0,1.052 1.566,2.422 3.806,2.422 2.019,0 3.829,-1.198 3.829,-2.348 l 0,-3.769 c 0,-0.196 0.025,-0.391 -0.269,-0.391 l -7.072,0 C 0.124,-4.086 0,-3.891 0,-3.646 L 0,0 z m 0.318,-5.75 8.492,0 c 0.22,0 0.416,0.171 0.416,0.392 l 0,5.775 c 0,1.786 -2.594,3.474 -5.36,3.474 l -0.06,0 c -2.704,0 -5.42,-1.346 -5.42,-3.451 l 0,-10.839 c 0,-2.154 1.566,-3.574 5.53,-3.574 3.963,0 5.31,1.91 5.31,3.476 l 0,0.914 0,0.053 0,0.011 c 0,0.294 -0.515,0.441 -0.808,0.441 -0.293,0 -0.685,-0.122 -0.685,-0.417 l 0,-0.88 c 0,-0.782 -0.808,-2.08 -3.769,-2.08 -2.961,0 -3.964,1.101 -3.964,2.251 l 0,3.964 c 0,0.343 0.147,0.49 0.318,0.49"
             style="fill:#332d2b;fill-opacity:1;fill-rule:nonzero;stroke:none"
             id="path3119" />
        </g>
        <g
           id="g3121"
           transform="translate(344.3564,466.3315)">
          <path
             inkscape:connector-curvature="0"
             d="m 0,0 c 2.275,0 4.617,-1.694 4.617,-3.725 l 0,-1.175 c 0,-0.22 -0.441,-0.342 -0.759,-0.342 -0.318,0 -0.807,0.171 -0.807,0.392 l 0,0.93 c 0,0.513 -0.587,2.275 -3.133,2.275 -2.544,0 -4.33,-2.789 -4.33,-5.823 l 0,-10.104 c 0,-0.269 -0.489,-0.419 -0.833,-0.419 -0.342,0 -0.88,0.123 -0.88,0.465 l 0,16.961 c 0,0.269 0.513,0.437 0.905,0.437 0.391,0 0.832,-0.164 0.832,-0.457 l 0,-1.256 c 0,-0.196 0.171,-0.294 0.318,-0.073 C -3.924,-1.694 -2.398,0 0,0"
             style="fill:#332d2b;fill-opacity:1;fill-rule:nonzero;stroke:none"
             id="path3123" />
        </g>
        <g
           id="g3125"
           transform="translate(352.2886,466.0815)">
          <path
             inkscape:connector-curvature="0"
             d="m 0,0 c 0.416,0 0.893,-0.148 0.893,-0.467 l 0,-16.993 c 0,-0.269 -0.697,-0.378 -0.893,-0.378 -0.195,0 -0.893,0.141 -0.893,0.419 l 0,16.936 C -0.893,-0.189 -0.445,0 0,0"
             style="fill:#332d2b;fill-opacity:1;fill-rule:nonzero;stroke:none"
             id="path3127" />
        </g>
        <g
           id="g3129"
           transform="translate(353.6475,469.9966)">
          <path
             inkscape:connector-curvature="0"
             d="m 0,0 c 0,-0.75 -0.608,-1.358 -1.358,-1.358 -0.751,0 -1.359,0.608 -1.359,1.358 0,0.75 0.608,1.358 1.359,1.358 C -0.608,1.358 0,0.75 0,0"
             style="fill:#332d2b;fill-opacity:1;fill-rule:nonzero;stroke:none"
             id="path3131" />
        </g>
        <g
           id="g3133"
           transform="translate(357.8325,458.252)">
          <path
             inkscape:connector-curvature="0"
             d="m 0,0 0,3.744 c 0,1.615 1.711,2.617 3.646,2.617 1.932,0 3.743,-1.003 3.743,-2.74 l 0,-3.573 c 0,-0.195 0,-0.391 -0.318,-0.391 l -6.753,0 C 0.122,-0.343 0,-0.221 0,0 m 0.318,-2.007 8.368,0 c 0.245,0 0.343,0.22 0.343,0.416 l 0,4.991 c 0,2.912 -2.545,4.43 -5.311,4.43 -2.789,0 -5.457,-1.518 -5.457,-4.111 l 0,-9.615 c 0,-1.085 0.889,-4.471 5.588,-4.471 4.698,0 5.18,3.417 5.18,3.784 l 0,0.612 c 0,0.342 -0.518,0.514 -0.787,0.514 -0.269,0 -0.853,-0.099 -0.853,-0.539 0,-1.025 -0.807,-2.716 -3.548,-2.716 -2.74,0 -3.769,1.664 -3.769,2.912 l 0,3.377 c 0,0.268 0.098,0.416 0.246,0.416"
             style="fill:#332d2b;fill-opacity:1;fill-rule:nonzero;stroke:none"
             id="path3135" />
        </g>
        <g
           id="g3137"
           transform="translate(147.4517,185.0737)">
          <path
             inkscape:connector-curvature="0"
             d="m 0,0 c 0,-2.604 -2.385,-6.583 -6.953,-6.583 -2.422,0 -6.806,1.165 -6.806,5.572 l 0,10.825 0,6.281 c 0,1.781 1.919,4.773 6.806,4.773 3.928,0 6.966,-2.216 6.966,-4.842 C 0.013,13.88 0,7.08 0,6.303 L 0,0 z m 3.256,15.387 c 0,2.632 -1.111,8.359 -10.277,8.359 -7.332,0 -9.73,-5.024 -9.73,-7.217 0,-1.782 -0.091,-8.496 -0.091,-8.907 0,-0.411 0.136,-9.477 0.136,-10.621 0,-2.191 2.513,-6.256 9.478,-6.256 5.368,0 7.172,2.762 7.332,3.014 0.16,0.251 0.411,0.159 0.411,-0.046 l 0,-1.918 c 0,-0.503 0.754,-0.708 1.393,-0.708 0.639,0 1.325,0.251 1.325,0.671 0,0.297 0.023,22.031 0.023,23.629"
             style="fill:#332d2b;fill-opacity:1;fill-rule:nonzero;stroke:none"
             id="path3139" />
        </g>
        <g
           id="g3141"
           transform="translate(158.7788,176.8574)">
          <path
             inkscape:connector-curvature="0"
             d="m 0,0 c 0,-0.488 -1.019,-0.74 -1.5,-0.74 -0.479,0 -1.512,0.227 -1.512,0.74 l 0,24.162 c 0,3.495 3.287,7.8 9.831,7.8 6.543,0 10.276,-4.118 10.276,-8.109 l 0,-23.842 c 0,-0.445 -1.069,-0.685 -1.616,-0.685 -0.549,0 -1.627,0.205 -1.627,0.707 0,0.377 -0.075,21.765 -0.075,23.546 0,1.782 -1.169,5.688 -6.735,5.688 -4.968,0 -6.974,-3.256 -6.974,-5.209 C 0.068,22.105 0,0 0,0"
             style="fill:#332d2b;fill-opacity:1;fill-rule:nonzero;stroke:none"
             id="path3143" />
        </g>
        <g
           id="g3145"
           transform="translate(198.561,184.519)">
          <path
             inkscape:connector-curvature="0"
             d="m 0,0 c 0,-2.878 -2.565,-5.983 -7.156,-5.983 -4.591,0 -6.965,3.653 -6.965,5.481 l 0,16.215 c 0,3.334 2.923,5.779 6.965,5.779 C -3.342,21.492 0,19.229 0,15.119 L 0,0 z m -7.042,24.3 c -7.354,0 -10.094,-4.613 -10.094,-8.633 0,-2.467 0.182,-16.946 0.182,-16.946 0,-5.572 6.054,-7.537 10.323,-7.537 3.655,0 9.593,2.559 9.593,7.72 l 0,16.627 c 0,4.704 -3.7,8.769 -10.004,8.769"
             style="fill:#332d2b;fill-opacity:1;fill-rule:nonzero;stroke:none"
             id="path3147" />
        </g>
        <g
           id="g3149"
           transform="translate(229.98,184.519)">
          <path
             inkscape:connector-curvature="0"
             d="m 0,0 c 0,-2.101 -2.878,-5.755 -7.011,-5.755 -4.135,0 -6.855,2.512 -6.855,5.115 l 0,16.718 c 0,2.925 2.537,5.436 6.855,5.436 C -3.837,21.514 0,19.961 0,15.576 L 0,0 z m -6.669,24.3 c -7.262,0 -10.278,-3.608 -10.278,-7.581 l 0,-18.043 c 0,-4.339 5.071,-7.492 9.866,-7.492 4.797,0 6.579,2.923 6.807,3.151 0.227,0.229 0.319,0.184 0.319,-0.044 l 0,-2.075 c 0,-0.365 1.051,-0.575 1.462,-0.575 0.411,0 1.416,0.183 1.416,0.594 l 0,24.072 c 0,5.344 -4.431,7.993 -9.592,7.993"
             style="fill:#332d2b;fill-opacity:1;fill-rule:nonzero;stroke:none"
             id="path3151" />
        </g>
        <g
           id="g3153"
           transform="translate(248.022,208.8193)">
          <path
             inkscape:connector-curvature="0"
             d="m 0,0 c 5.162,0 10.186,-2.558 10.186,-9.319 l 0,-22.657 c 0,-0.548 -1.17,-0.729 -1.627,-0.729 -0.457,0 -1.507,0.244 -1.507,0.837 l 0,22.413 c 0,2.283 -0.485,6.771 -6.835,6.771 -6.348,0 -6.961,-5.036 -6.961,-6.588 l 0,-22.658 c 0,-0.55 -1.116,-0.775 -1.618,-0.775 -0.503,0 -1.504,0.285 -1.504,0.833 l 0,22.6 C -9.866,-3.563 -6.212,0 0,0"
             style="fill:#332d2b;fill-opacity:1;fill-rule:nonzero;stroke:none"
             id="path3155" />
        </g>
        <g
           id="g3157"
           transform="translate(281.1836,184.2451)">
          <path
             inkscape:connector-curvature="0"
             d="m 0,0 c 0,-2.924 -3.518,-5.573 -7.239,-5.573 -3.723,0 -7.15,2.421 -7.15,5.39 l 0,16.17 c 0,3.06 2.696,5.847 7.15,5.847 C -3.7,21.834 0,19.276 0,15.987 L 0,0 z m -6.989,24.574 c -6.166,0 -10.414,-4.248 -10.414,-8.542 l 0,-16.032 c 0,-4.339 4.384,-8.13 10.186,-8.13 5.801,0 10.141,3.151 10.141,8.13 l 0,16.032 c 0,4.249 -4.386,8.542 -9.913,8.542"
             style="fill:#332d2b;fill-opacity:1;fill-rule:nonzero;stroke:none"
             id="path3159" />
        </g>
        <g
           id="g3161"
           transform="translate(318.2822,184.9292)">
          <path
             inkscape:connector-curvature="0"
             d="m 0,0 c 0,-2.146 -2.649,-6.668 -7.764,-6.668 -5.117,0 -6.076,2.878 -6.076,4.522 l 0,17.859 c 0,3.792 3.289,5.436 6.92,5.436 3.586,0 6.92,-1.873 6.92,-5.527 L 0,0 z m -7.034,23.89 c -5.253,0 -9.912,-2.513 -9.912,-8.404 l 0,-18.591 c 0,-3.883 4.567,-6.623 9.318,-6.623 4.75,0 7.217,3.198 7.308,3.471 0.091,0.275 0.411,0.411 0.411,-0.091 l 0,-8.542 c 0,0 0.046,-6.167 -7.011,-6.167 -7.057,0 -6.873,5.783 -6.873,6.284 0,0.503 -0.412,1.025 -1.6,1.025 -1.187,0 -1.553,-0.731 -1.553,-1.096 l 0,-0.639 c 0,-4.859 4.431,-8.907 9.912,-8.907 6.029,0 10.14,3.931 10.14,9.23 l 0,30.508 c 0,6.076 -4.887,8.542 -10.14,8.542"
             style="fill:#332d2b;fill-opacity:1;fill-rule:nonzero;stroke:none"
             id="path3163" />
        </g>
        <g
           id="g3165"
           transform="translate(344.0903,186.2095)">
          <path
             inkscape:connector-curvature="0"
             d="m 0,0 c 0,-2.923 -2.01,-8.268 -8.269,-8.268 -3.379,0 -5.937,1.919 -5.937,5.025 l 0,17.906 c 0,2.283 2.65,5.207 7.102,5.207 C -2.695,19.87 0,17.312 0,14.89 L 0,0 z m -6.943,22.61 c -7.079,0 -10.414,-4.156 -10.414,-7.811 l 0,-19.001 c 0,-2.694 3.014,-6.806 9.088,-6.806 6.076,0 7.72,3.06 7.949,3.471 0.228,0.411 0.503,0.366 0.503,-0.091 l 0,-2.398 c 0,-0.503 0.913,-0.754 1.506,-0.754 0.594,0 1.462,0.247 1.462,0.657 l 0,25.013 c 0,4.432 -4.476,7.72 -10.094,7.72"
             style="fill:#332d2b;fill-opacity:1;fill-rule:nonzero;stroke:none"
             id="path3167" />
        </g>
        <g
           id="g3169"
           transform="translate(357.3291,176.0093)">
          <path
             inkscape:connector-curvature="0"
             d="m 0,0 c 0,-0.457 -0.913,-0.808 -1.598,-0.808 -0.686,0 -1.644,0.319 -1.644,0.868 l 0,41.251 c 0,0.73 1.05,0.966 1.621,0.966 C -1.049,42.277 0,41.979 0,41.34 L 0,0 z"
             style="fill:#332d2b;fill-opacity:1;fill-rule:nonzero;stroke:none"
             id="path3171" />
        </g>
        <g
           id="g3173"
           transform="translate(366.1851,201.2832)">
          <path
             inkscape:connector-curvature="0"
             d="m 0,0 c 0,1.965 2.923,4.522 7.104,4.522 3.767,0 7.147,-2.238 7.147,-4.384 l 0,-7.035 c 0,-0.366 0.046,-0.731 -0.502,-0.731 l -13.2,0 C 0.229,-7.628 0,-7.262 0,-6.806 L 0,0 z m 0.593,-10.733 15.851,0 c 0.411,0 0.776,0.319 0.776,0.73 l 0,10.78 c 0,3.334 -4.841,6.486 -10.003,6.486 l -0.113,0 C 2.056,7.263 -3.014,4.75 -3.014,0.823 l 0,-20.235 c 0,-4.02 2.923,-6.67 10.322,-6.67 7.4,0 9.912,3.564 9.912,6.486 l 0,1.706 0,0.1 0,0.022 c 0,0.548 -0.959,0.823 -1.508,0.823 -0.547,0 -1.278,-0.229 -1.278,-0.778 l 0,-1.643 c 0,-1.462 -1.508,-3.883 -7.035,-3.883 -5.527,0 -7.399,2.056 -7.399,4.202 l 0,7.4 c 0,0.639 0.274,0.914 0.593,0.914"
             style="fill:#332d2b;fill-opacity:1;fill-rule:nonzero;stroke:none"
             id="path3175" />
        </g>
        <g
           id="g3177"
           transform="translate(399.8628,208.7852)">
          <path
             inkscape:connector-curvature="0"
             d="m 0,0 c 4.249,0 8.619,-3.163 8.619,-6.954 l 0,-2.193 c 0,-0.41 -0.823,-0.638 -1.416,-0.638 -0.595,0 -1.508,0.32 -1.508,0.73 l 0,1.736 c 0,0.959 -1.095,4.248 -5.845,4.248 -4.751,0 -8.085,-5.207 -8.085,-10.871 l 0,-18.86 c 0,-0.502 -0.914,-0.781 -1.555,-0.781 -0.638,0 -1.644,0.228 -1.644,0.867 l 0,31.66 c 0,0.503 0.96,0.817 1.692,0.817 0.729,0 1.552,-0.305 1.552,-0.854 l 0,-2.344 c 0,-0.366 0.32,-0.547 0.593,-0.136 C -7.323,-3.163 -4.476,0 0,0"
             style="fill:#332d2b;fill-opacity:1;fill-rule:nonzero;stroke:none"
             id="path3179" />
        </g>
        <g
           id="g3181"
           transform="translate(414.6704,208.3179)">
          <path
             inkscape:connector-curvature="0"
             d="m 0,0 c 0.776,0 1.667,-0.277 1.667,-0.871 l 0,-31.72 c 0,-0.503 -1.3,-0.708 -1.667,-0.708 -0.365,0 -1.667,0.264 -1.667,0.782 l 0,31.616 C -1.667,-0.353 -0.83,0 0,0"
             style="fill:#332d2b;fill-opacity:1;fill-rule:nonzero;stroke:none"
             id="path3183" />
        </g>
        <g
           id="g3185"
           transform="translate(417.207,215.6255)">
          <path
             inkscape:connector-curvature="0"
             d="m 0,0 c 0,-1.4 -1.136,-2.535 -2.536,-2.535 -1.402,0 -2.534,1.135 -2.534,2.535 0,1.4 1.132,2.536 2.534,2.536 C -1.136,2.536 0,1.4 0,0"
             style="fill:#332d2b;fill-opacity:1;fill-rule:nonzero;stroke:none"
             id="path3187" />
        </g>
        <g
           id="g3189"
           transform="translate(425.0186,193.7021)">
          <path
             inkscape:connector-curvature="0"
             d="m 0,0 0,6.989 c 0,3.014 3.196,4.886 6.806,4.886 3.607,0 6.988,-1.872 6.988,-5.115 l 0,-6.669 c 0,-0.365 0,-0.731 -0.593,-0.731 l -12.607,0 C 0.227,-0.64 0,-0.411 0,0 m 0.594,-3.746 15.62,0 c 0.458,0 0.64,0.411 0.64,0.776 l 0,9.318 c 0,5.436 -4.75,8.268 -9.912,8.268 -5.207,0 -10.187,-2.832 -10.187,-7.674 l 0,-17.948 c 0,-2.025 1.66,-8.346 10.431,-8.346 8.769,0 9.668,6.379 9.668,7.064 l 0,1.142 c 0,0.64 -0.966,0.959 -1.468,0.959 -0.503,0 -1.592,-0.183 -1.592,-1.005 0,-1.914 -1.508,-5.069 -6.623,-5.069 -5.116,0 -7.035,3.106 -7.035,5.435 l 0,6.303 c 0,0.502 0.182,0.777 0.458,0.777"
             style="fill:#332d2b;fill-opacity:1;fill-rule:nonzero;stroke:none"
             id="path3191" />
        </g>
        <g
           id="g3193"
           transform="translate(254.9229,339.7593)">
          <path
             inkscape:connector-curvature="0"
             d="m 0,0 c 0,-1.15 -1.419,-3.572 -4.16,-3.572 -2.74,0 -3.254,1.542 -3.254,2.422 l 0,9.568 c 0,2.031 1.762,2.911 3.707,2.911 C -1.786,11.329 0,10.326 0,8.369 L 0,0 z m -3.769,12.798 c -2.813,0 -5.309,-1.346 -5.309,-4.502 l 0,-9.96 c 0,-2.079 2.447,-3.547 4.992,-3.547 2.544,0 3.865,1.712 3.914,1.859 0.049,0.147 0.221,0.22 0.221,-0.048 l 0,-4.577 c 0,0 0.025,-3.304 -3.756,-3.304 -3.78,0 -3.683,3.098 -3.683,3.367 0,0.269 -0.219,0.549 -0.856,0.549 -0.636,0 -0.832,-0.391 -0.832,-0.587 l 0,-0.343 c 0,-2.602 2.374,-4.771 5.309,-4.771 3.23,0 5.433,2.106 5.433,4.944 l 0,16.344 c 0,3.254 -2.619,4.576 -5.433,4.576"
             style="fill:#332d2b;fill-opacity:1;fill-rule:nonzero;stroke:none"
             id="path3195" />
        </g>
        <g
           id="g3197"
           transform="translate(268.7485,340.4448)">
          <path
             inkscape:connector-curvature="0"
             d="m 0,0 c 0,-1.566 -1.077,-4.429 -4.43,-4.429 -1.81,0 -3.181,1.028 -3.181,2.692 l 0,9.591 c 0,1.224 1.42,2.791 3.805,2.791 C -1.444,10.645 0,9.273 0,7.977 L 0,0 z m -3.72,12.112 c -3.792,0 -5.579,-2.226 -5.579,-4.184 l 0,-10.179 c 0,-1.444 1.615,-3.646 4.869,-3.646 3.255,0 4.136,1.64 4.258,1.859 0.123,0.221 0.269,0.196 0.269,-0.048 l 0,-1.285 c 0,-0.269 0.49,-0.404 0.808,-0.404 0.318,0 0.783,0.132 0.783,0.352 l 0,13.4 c 0,2.374 -2.398,4.135 -5.408,4.135"
             style="fill:#332d2b;fill-opacity:1;fill-rule:nonzero;stroke:none"
             id="path3199" />
        </g>
        <g
           id="g3201"
           transform="translate(275.8408,334.981)">
          <path
             inkscape:connector-curvature="0"
             d="m 0,0 c 0,-0.246 -0.489,-0.433 -0.856,-0.433 -0.368,0 -0.881,0.171 -0.881,0.465 l 0,22.098 c 0,0.391 0.563,0.518 0.868,0.518 0.307,0 0.869,-0.16 0.869,-0.502 L 0,0 z"
             style="fill:#332d2b;fill-opacity:1;fill-rule:nonzero;stroke:none"
             id="path3203" />
        </g>
        <g
           id="g3205"
           transform="translate(280.585,348.52)">
          <path
             inkscape:connector-curvature="0"
             d="m 0,0 c 0,1.052 1.566,2.422 3.805,2.422 2.019,0 3.83,-1.199 3.83,-2.348 l 0,-3.769 c 0,-0.196 0.024,-0.391 -0.27,-0.391 l -7.071,0 C 0.123,-4.086 0,-3.89 0,-3.646 L 0,0 z m 0.318,-5.75 8.491,0 c 0.22,0 0.416,0.171 0.416,0.391 l 0,5.776 c 0,1.785 -2.594,3.474 -5.359,3.474 l -0.061,0 c -2.704,0 -5.42,-1.347 -5.42,-3.45 l 0,-10.84 c 0,-2.153 1.566,-3.573 5.53,-3.573 3.964,0 5.31,1.909 5.31,3.474 l 0,0.914 0,0.054 0,0.012 c 0,0.293 -0.514,0.44 -0.808,0.44 -0.293,0 -0.685,-0.123 -0.685,-0.416 l 0,-0.881 c 0,-0.782 -0.808,-2.08 -3.769,-2.08 -2.96,0 -3.963,1.102 -3.963,2.251 l 0,3.964 c 0,0.343 0.146,0.49 0.318,0.49"
             style="fill:#332d2b;fill-opacity:1;fill-rule:nonzero;stroke:none"
             id="path3207" />
        </g>
        <g
           id="g3209"
           transform="translate(298.6265,352.5386)">
          <path
             inkscape:connector-curvature="0"
             d="m 0,0 c 2.276,0 4.617,-1.694 4.617,-3.725 l 0,-1.175 c 0,-0.22 -0.441,-0.342 -0.759,-0.342 -0.318,0 -0.807,0.171 -0.807,0.391 l 0,0.93 c 0,0.515 -0.587,2.276 -3.132,2.276 -2.545,0 -4.331,-2.79 -4.331,-5.824 l 0,-10.103 c 0,-0.269 -0.489,-0.419 -0.833,-0.419 -0.342,0 -0.88,0.122 -0.88,0.465 l 0,16.961 c 0,0.269 0.513,0.437 0.906,0.437 0.39,0 0.831,-0.164 0.831,-0.457 l 0,-1.256 c 0,-0.195 0.171,-0.293 0.318,-0.073 C -3.923,-1.694 -2.398,0 0,0"
             style="fill:#332d2b;fill-opacity:1;fill-rule:nonzero;stroke:none"
             id="path3211" />
        </g>
        <g
           id="g3213"
           transform="translate(306.5586,352.2886)">
          <path
             inkscape:connector-curvature="0"
             d="m 0,0 c 0.417,0 0.893,-0.148 0.893,-0.467 l 0,-16.992 c 0,-0.27 -0.696,-0.379 -0.893,-0.379 -0.195,0 -0.893,0.141 -0.893,0.418 l 0,16.937 C -0.893,-0.189 -0.445,0 0,0"
             style="fill:#332d2b;fill-opacity:1;fill-rule:nonzero;stroke:none"
             id="path3215" />
        </g>
        <g
           id="g3217"
           transform="translate(307.9175,356.2036)">
          <path
             inkscape:connector-curvature="0"
             d="m 0,0 c 0,-0.751 -0.608,-1.358 -1.358,-1.358 -0.751,0 -1.359,0.607 -1.359,1.358 0,0.75 0.608,1.358 1.359,1.358 C -0.608,1.358 0,0.75 0,0"
             style="fill:#332d2b;fill-opacity:1;fill-rule:nonzero;stroke:none"
             id="path3219" />
        </g>
        <g
           id="g3221"
           transform="translate(312.1021,344.4585)">
          <path
             inkscape:connector-curvature="0"
             d="m 0,0 0,3.744 c 0,1.615 1.712,2.618 3.646,2.618 1.933,0 3.744,-1.004 3.744,-2.74 l 0,-3.573 c 0,-0.195 0,-0.391 -0.319,-0.391 l -6.753,0 C 0.122,-0.342 0,-0.22 0,0 m 0.318,-2.007 8.369,0 c 0.245,0 0.342,0.221 0.342,0.417 l 0,4.991 c 0,2.911 -2.545,4.429 -5.31,4.429 -2.789,0 -5.457,-1.517 -5.457,-4.111 l 0,-9.615 c 0,-1.085 0.889,-4.471 5.588,-4.471 4.698,0 5.179,3.418 5.179,3.784 l 0,0.612 c 0,0.343 -0.517,0.515 -0.786,0.515 -0.27,0 -0.853,-0.099 -0.853,-0.539 0,-1.026 -0.808,-2.716 -3.548,-2.716 -2.74,0 -3.769,1.664 -3.769,2.912 l 0,3.376 c 0,0.269 0.097,0.416 0.245,0.416"
             style="fill:#332d2b;fill-opacity:1;fill-rule:nonzero;stroke:none"
             id="path3223" />
        </g>
        <g
           id="g3225"
           transform="translate(630.2378,169.9023)">
          <path
             inkscape:connector-curvature="0"
             d="m 0,0 c -15.77,0.291 -25.763,9.697 -25.763,9.697 1.478,1.339 2.357,2.274 2.438,2.332 0.234,0.171 0.296,0.456 0.523,0.164 C -19.152,8.877 -6.97,1.866 6.313,4.462 20.41,7.218 27.984,15.179 32.01,22.817 36.036,30.459 38.605,41.206 33.466,53.353 28.339,65.47 17.292,70.805 12.577,72.56 7.772,74.349 -3.824,75.933 -14.42,70.501 -25.018,65.071 -29.254,57.629 -31.399,52.369 c -2.668,-6.882 -0.558,-12.205 -3.586,-19.547 -4.498,-11.289 -17.57,-13.766 -26.43,-9.774 -8.859,3.991 -10.954,12.272 -10.398,17.364 1.213,11.079 8.688,18.283 18.371,18.106 8.581,-0.157 16.913,-7.501 17.43,-7.805 0.516,-0.299 0.579,-0.01 0.643,0.222 0,0 2.419,6.958 6.254,12.124 0.297,0.4 0.363,0.746 -0.097,1.102 -2.059,1.604 -10.039,9.06 -25.114,9.338 -15.075,0.276 -33.694,-10.667 -33.694,-34.489 0,-22.918 19.445,-33.804 35.214,-34.093 15.772,-0.291 26.9,12.898 30.328,19.612 1.931,3.779 2.437,6.884 2.785,10.049 l -0.004,-0.019 c 0.022,0.188 0.042,0.375 0.063,0.563 0.081,0.769 0.158,1.544 0.247,2.335 0.468,4.449 1.083,8.966 4.409,14.132 3.221,4.812 9.008,8.159 15.966,8.031 C 7.946,59.492 21.291,53.896 21.017,39.053 20.744,24.209 6.717,19.506 1.267,19.606 c -5.451,0.1 -12.115,2.386 -18.244,9.706 -0.251,0.441 -0.858,0.624 -1.046,-0.128 -0.188,-0.749 -2.326,-6.595 -3.041,-7.685 -0.21,-0.401 -0.356,-0.457 0.155,-1.075 0.511,-0.619 7.774,-9.279 21.689,-9.533 13.915,-0.256 28.648,12.346 28.934,28.002 0.287,15.653 -11.378,29.184 -29.043,29.184 -16.817,0 -24.82,-12.577 -26.786,-18.919 -1.965,-6.345 0.445,-13.189 -5.41,-22.363 -5.849,-9.173 -13.956,-12.282 -21.493,-12.144 -7.537,0.14 -25.488,5.469 -25.118,25.646 0.37,20.175 19.01,24.473 24.691,24.371 5.682,-0.107 12.894,-3.676 14.657,-4.883 0.299,-0.222 0.559,-0.271 0.827,0.073 0.268,0.343 0.988,1.633 1.121,1.892 0.136,0.258 0.271,0.518 -0.115,0.786 -0.388,0.267 -7.969,4.988 -16.55,5.149 -8.581,0.156 -27.995,-7.03 -27.995,-27.329 0,-19.097 14.408,-28.822 28.469,-28.822 13.804,0 21.728,9.66 24.929,15.254 4.794,8.379 2.822,16.106 4.749,21.406 1.455,3.996 8.207,17.508 24.207,17.211 C 16.857,65.113 27.176,52.166 26.937,39.175 26.696,26.186 15.674,13.444 0.712,13.444 c -10.918,0 -17.689,7.313 -17.986,7.666 -0.298,0.356 -0.77,0.579 -0.457,1.097 0.313,0.516 0.861,1.854 0.91,2.071 0.046,0.215 0.095,0.476 0.434,0.078 0.342,-0.397 7.007,-7.87 17.378,-7.87 11.56,0 22.915,9.406 23.157,22.509 0.242,13.102 -9.545,23.491 -23.46,23.748 -10.202,0.186 -18.22,-7.014 -21.391,-15.152 -2.581,-6.624 -0.653,-15.71 -5.653,-23.209 -5.836,-8.752 -16.183,-16.291 -26.85,-16.093 -10.668,0.194 -32.092,8.478 -31.66,32.017 0.374,20.29 18.893,30.621 31.301,30.394 12.406,-0.228 19.824,-6.918 20.168,-7.16 0.342,-0.235 0.337,-0.527 0.096,-0.985 -0.24,-0.457 -3.537,-6.257 -3.658,-6.543 -0.122,-0.29 -0.355,-0.404 -1.1,0.074 -0.748,0.477 -7.321,5.68 -15.439,5.68 -10.697,0 -21.617,-8.538 -21.856,-21.521 -0.239,-12.979 9.566,-22.331 22.551,-22.57 12.988,-0.238 19.276,9.704 21.581,15.881 2.294,6.149 0.505,12.391 3.212,18.539 2.308,5.241 12.111,19.054 28.817,19.054 17.861,0 32.014,-14.681 31.69,-32.425 C 32.168,20.985 16.062,7.131 0.484,7.415 c -15.578,0.287 -22.662,9.145 -23.368,9.71 -0.502,0.401 -0.58,0.835 -1.027,0.193 -0.447,-0.644 -9.905,-15.824 -29.906,-15.457 -20.003,0.367 -38.64,16.625 -38.263,37.222 0.38,20.604 17.472,38.501 37.474,38.134 18.091,-0.336 27.936,-10.492 28.28,-10.731 0.344,-0.239 0.633,-0.243 1.164,0.269 0.53,0.511 11.854,10.627 27.624,10.337 C 18.232,76.803 39.68,63.648 39.237,39.53 38.795,15.41 18.206,-0.334 0,0 m 2.756,80.45 c -16.411,0 -27.713,-8.945 -27.95,-9.229 -0.239,-0.285 -0.412,-0.283 -0.797,-0.101 0,0 -8.085,5.947 -14.84,7.697 -9.884,2.561 -20.87,3.572 -34.112,-3.722 -13.243,-7.297 -20.608,-22.011 -20.608,-35.697 0,-16.305 8.005,-28.275 21.262,-35.887 13.258,-7.607 25.755,-6.099 34.692,-2.727 4.118,1.556 7.844,4.029 10.69,6.261 C -20.761,0.378 -10.148,-4 -0.626,-4 18.52,-4 43.322,11.989 43.322,40.905 43.322,60.538 26.091,80.45 2.756,80.45"
             style="fill:#332d2b;fill-opacity:1;fill-rule:nonzero;stroke:none"
             id="path3227" />
        </g>
        <g
           id="g3229"
           transform="translate(542.1299,434.2383)">
          <path
             inkscape:connector-curvature="0"
             d="m 0,0 c -8.839,0.163 -14.44,5.435 -14.44,5.435 0.828,0.751 1.321,1.274 1.366,1.307 0.132,0.095 0.167,0.255 0.294,0.091 2.046,-1.857 8.873,-5.788 16.319,-4.333 7.9,1.545 12.146,6.007 14.402,10.289 2.257,4.282 3.697,10.306 0.816,17.114 -2.873,6.792 -9.065,9.782 -11.707,10.765 -2.694,1.003 -9.193,1.891 -15.133,-1.153 -5.939,-3.044 -8.313,-7.215 -9.516,-10.163 -1.495,-3.857 -0.312,-6.841 -2.01,-10.956 -2.52,-6.327 -9.848,-7.715 -14.813,-5.478 -4.966,2.236 -6.14,6.878 -5.828,9.732 0.68,6.21 4.869,10.248 10.296,10.148 4.81,-0.088 9.48,-4.204 9.77,-4.374 0.289,-0.168 0.324,-0.006 0.361,0.124 0,0 1.355,3.9 3.505,6.795 0.167,0.224 0.203,0.418 -0.055,0.618 -1.154,0.899 -5.627,5.078 -14.076,5.233 -8.449,0.156 -18.885,-5.978 -18.885,-19.33 0,-12.845 10.899,-18.947 19.737,-19.109 8.84,-0.163 15.077,7.23 16.998,10.993 1.083,2.118 1.367,3.858 1.562,5.632 l -0.003,-0.011 c 0.012,0.106 0.023,0.211 0.035,0.316 0.047,0.431 0.089,0.866 0.138,1.309 0.263,2.494 0.608,5.025 2.472,7.921 1.805,2.697 5.049,4.573 8.949,4.501 3.9,-0.072 11.379,-3.208 11.225,-11.528 -0.153,-8.32 -8.014,-10.955 -11.07,-10.9 -3.054,0.056 -6.789,1.338 -10.224,5.441 -0.141,0.247 -0.481,0.35 -0.587,-0.073 -0.105,-0.419 -1.304,-3.695 -1.704,-4.307 -0.118,-0.224 -0.2,-0.256 0.087,-0.602 0.286,-0.347 4.357,-5.201 12.156,-5.343 7.799,-0.144 16.057,6.92 16.217,15.694 0.161,8.774 -6.377,16.358 -16.278,16.358 -9.425,0 -13.911,-7.05 -15.013,-10.604 -1.101,-3.555 0.249,-7.392 -3.032,-12.534 -3.278,-5.142 -7.822,-6.884 -12.047,-6.807 -4.224,0.079 -14.286,3.065 -14.078,14.374 0.208,11.309 10.654,13.717 13.838,13.66 3.185,-0.06 7.228,-2.06 8.216,-2.737 0.168,-0.125 0.313,-0.152 0.463,0.042 0.151,0.191 0.554,0.914 0.629,1.06 0.076,0.144 0.151,0.29 -0.064,0.44 -0.219,0.15 -4.468,2.797 -9.277,2.886 -4.81,0.087 -15.691,-3.94 -15.691,-15.317 0,-10.704 8.076,-16.155 15.957,-16.155 7.737,0 12.178,5.415 13.973,8.55 2.686,4.696 1.582,9.027 2.662,11.998 0.814,2.24 4.599,9.813 13.566,9.647 C 9.448,36.495 15.231,29.238 15.099,21.957 14.963,14.677 8.785,7.535 0.398,7.535 c -6.118,0 -9.913,4.099 -10.08,4.297 -0.167,0.199 -0.431,0.324 -0.256,0.614 0.175,0.289 0.483,1.039 0.509,1.161 0.027,0.121 0.054,0.268 0.244,0.044 0.192,-0.222 3.928,-4.411 9.741,-4.411 6.479,0 12.843,5.272 12.979,12.615 0.135,7.345 -5.35,13.167 -13.149,13.312 -5.719,0.104 -10.212,-3.933 -11.99,-8.493 -1.446,-3.713 -0.366,-8.805 -3.168,-13.009 -3.271,-4.904 -9.07,-9.13 -15.049,-9.019 -5.979,0.108 -17.988,4.751 -17.745,17.944 0.209,11.373 10.589,17.163 17.544,17.036 6.954,-0.127 11.11,-3.877 11.303,-4.013 0.192,-0.132 0.189,-0.295 0.054,-0.551 -0.134,-0.258 -1.982,-3.508 -2.05,-3.668 -0.068,-0.163 -0.199,-0.227 -0.617,0.041 -0.419,0.268 -4.104,3.184 -8.652,3.184 -5.996,0 -12.117,-4.786 -12.25,-12.062 -0.135,-7.275 5.361,-12.516 12.639,-12.65 7.28,-0.134 10.803,5.438 12.095,8.9 1.287,3.446 0.284,6.945 1.801,10.391 1.294,2.938 6.788,10.68 16.151,10.68 10.011,0 17.944,-8.229 17.762,-18.174 C 18.03,11.762 9.002,3.997 0.272,4.156 -8.46,4.317 -12.431,9.281 -12.826,9.598 c -0.281,0.225 -0.325,0.468 -0.576,0.108 -0.25,-0.361 -5.551,-8.869 -16.762,-8.664 -11.211,0.207 -21.657,9.319 -21.445,20.864 0.213,11.547 9.792,21.579 21.004,21.373 10.139,-0.188 15.657,-5.881 15.85,-6.015 0.192,-0.134 0.354,-0.136 0.652,0.152 0.297,0.285 6.644,5.955 15.483,5.793 C 10.219,43.046 22.24,35.673 21.991,22.156 21.744,8.637 10.204,-0.188 0,0 m 1.544,45.091 c -9.197,0 -15.532,-5.014 -15.666,-5.173 -0.133,-0.16 -0.23,-0.158 -0.445,-0.057 0,0 -4.533,3.333 -8.318,4.315 -5.54,1.435 -11.698,2.002 -19.12,-2.086 -7.422,-4.09 -11.55,-12.337 -11.55,-20.008 0,-9.139 4.487,-15.848 11.917,-20.115 7.431,-4.263 14.436,-3.418 19.444,-1.528 2.308,0.872 4.397,2.259 5.992,3.51 4.566,-3.737 10.514,-6.191 15.851,-6.191 10.731,0 24.633,8.961 24.633,25.168 0,11.005 -9.658,22.165 -22.738,22.165"
             style="fill:#332d2b;fill-opacity:1;fill-rule:nonzero;stroke:none"
             id="path3231" />
        </g>
        <g
           id="g3233"
           transform="translate(499.6221,399.2314)">
          <path
             inkscape:connector-curvature="0"
             d="m 0,0 c 0,-1.212 -1.109,-3.063 -3.234,-3.063 -1.126,0 -3.165,0.542 -3.165,2.593 l 0,5.036 0,2.922 c 0,0.828 0.892,2.22 3.165,2.22 1.827,0 3.242,-1.03 3.242,-2.252 C 0.008,6.457 0,3.293 0,2.933 L 0,0 z m 1.516,7.158 c 0,1.225 -0.517,3.888 -4.781,3.888 -3.411,0 -4.527,-2.337 -4.527,-3.356 0,-0.829 -0.042,-3.953 -0.042,-4.145 0,-0.191 0.063,-4.409 0.063,-4.94 0,-1.019 1.169,-2.911 4.41,-2.911 2.497,0 3.336,1.285 3.411,1.403 0.075,0.116 0.191,0.073 0.191,-0.023 l 0,-0.891 c 0,-0.234 0.35,-0.329 0.648,-0.329 0.297,0 0.617,0.116 0.617,0.312 0,0.138 0.01,10.249 0.01,10.992"
             style="fill:#332d2b;fill-opacity:1;fill-rule:nonzero;stroke:none"
             id="path3235" />
        </g>
        <g
           id="g3237"
           transform="translate(504.8936,395.4087)">
          <path
             inkscape:connector-curvature="0"
             d="m 0,0 c 0,-0.227 -0.475,-0.343 -0.698,-0.343 -0.223,0 -0.704,0.105 -0.704,0.343 l 0,11.241 c 0,1.626 1.53,3.628 4.573,3.628 3.045,0 4.782,-1.916 4.782,-3.772 l 0,-11.092 c 0,-0.207 -0.499,-0.318 -0.753,-0.318 -0.254,0 -0.757,0.095 -0.757,0.328 0,0.176 -0.034,10.126 -0.034,10.956 0,0.828 -0.544,2.645 -3.134,2.645 -2.311,0 -3.244,-1.514 -3.244,-2.424 C 0.031,10.284 0,0 0,0"
             style="fill:#332d2b;fill-opacity:1;fill-rule:nonzero;stroke:none"
             id="path3239" />
        </g>
        <g
           id="g3241"
           transform="translate(523.4004,398.9731)">
          <path
             inkscape:connector-curvature="0"
             d="m 0,0 c 0,-1.338 -1.193,-2.783 -3.329,-2.783 -2.135,0 -3.24,1.7 -3.24,2.549 l 0,7.545 c 0,1.55 1.361,2.688 3.24,2.688 C -1.554,9.999 0,8.946 0,7.034 L 0,0 z m -3.275,11.305 c -3.422,0 -4.698,-2.145 -4.698,-4.016 0,-1.148 0.086,-7.883 0.086,-7.883 0,-2.594 2.817,-3.507 4.803,-3.507 1.699,0 4.463,1.19 4.463,3.591 l 0,7.736 c 0,2.188 -1.722,4.079 -4.654,4.079"
             style="fill:#332d2b;fill-opacity:1;fill-rule:nonzero;stroke:none"
             id="path3243" />
        </g>
        <g
           id="g3245"
           transform="translate(538.0176,398.9731)">
          <path
             inkscape:connector-curvature="0"
             d="m 0,0 c 0,-0.978 -1.338,-2.677 -3.261,-2.677 -1.925,0 -3.19,1.169 -3.19,2.38 l 0,7.776 c 0,1.362 1.18,2.53 3.19,2.53 C -1.785,10.009 0,9.287 0,7.246 L 0,0 z m -3.102,11.305 c -3.379,0 -4.782,-1.679 -4.782,-3.527 l 0,-8.393 c 0,-2.019 2.359,-3.486 4.59,-3.486 2.232,0 3.061,1.36 3.166,1.466 0.106,0.106 0.149,0.086 0.149,-0.022 l 0,-0.964 c 0,-0.17 0.489,-0.267 0.68,-0.267 0.192,0 0.659,0.085 0.659,0.276 l 0,11.198 c 0,2.487 -2.062,3.719 -4.462,3.719"
             style="fill:#332d2b;fill-opacity:1;fill-rule:nonzero;stroke:none"
             id="path3247" />
        </g>
        <g
           id="g3249"
           transform="translate(546.4111,410.2778)">
          <path
             inkscape:connector-curvature="0"
             d="m 0,0 c 2.401,0 4.739,-1.189 4.739,-4.334 l 0,-10.542 c 0,-0.254 -0.545,-0.339 -0.756,-0.339 -0.214,0 -0.702,0.113 -0.702,0.39 l 0,10.427 c 0,1.063 -0.226,3.149 -3.179,3.149 -2.955,0 -3.24,-2.341 -3.24,-3.064 l 0,-10.541 c 0,-0.255 -0.518,-0.361 -0.752,-0.361 -0.235,0 -0.7,0.132 -0.7,0.388 l 0,10.514 C -4.59,-1.657 -2.89,0 0,0"
             style="fill:#332d2b;fill-opacity:1;fill-rule:nonzero;stroke:none"
             id="path3251" />
        </g>
        <g
           id="g3253"
           transform="translate(561.8389,398.8462)">
          <path
             inkscape:connector-curvature="0"
             d="m 0,0 c 0,-1.361 -1.636,-2.593 -3.368,-2.593 -1.732,0 -3.326,1.127 -3.326,2.508 l 0,7.522 c 0,1.424 1.254,2.72 3.326,2.72 C -1.721,10.157 0,8.967 0,7.437 L 0,0 z m -3.251,11.432 c -2.869,0 -4.846,-1.976 -4.846,-3.974 l 0,-7.458 c 0,-2.019 2.04,-3.783 4.739,-3.783 2.698,0 4.717,1.467 4.717,3.783 l 0,7.458 c 0,1.977 -2.04,3.974 -4.61,3.974"
             style="fill:#332d2b;fill-opacity:1;fill-rule:nonzero;stroke:none"
             id="path3255" />
        </g>
        <g
           id="g3257"
           transform="translate(502.6865,371.2998)">
          <path
             inkscape:connector-curvature="0"
             d="m 0,0 c 0,-0.999 -1.232,-3.102 -3.612,-3.102 -2.381,0 -2.827,1.339 -2.827,2.103 l 0,8.31 c 0,1.764 1.531,2.529 3.219,2.529 C -1.551,9.84 0,8.967 0,7.268 L 0,0 z m -3.272,11.115 c -2.444,0 -4.613,-1.169 -4.613,-3.911 l 0,-8.648 c 0,-1.806 2.126,-3.081 4.336,-3.081 2.211,0 3.357,1.487 3.401,1.614 0.042,0.128 0.191,0.192 0.191,-0.042 l 0,-3.973 c 0,0 0.02,-2.87 -3.263,-2.87 -3.282,0 -3.197,2.69 -3.197,2.924 0,0.233 -0.191,0.476 -0.744,0.476 -0.552,0 -0.724,-0.34 -0.724,-0.509 l 0,-0.299 c 0,-2.259 2.063,-4.143 4.613,-4.143 2.804,0 4.717,1.829 4.717,4.294 l 0,14.194 c 0,2.826 -2.273,3.974 -4.717,3.974"
             style="fill:#332d2b;fill-opacity:1;fill-rule:nonzero;stroke:none"
             id="path3259" />
        </g>
        <g
           id="g3261"
           transform="translate(514.6934,371.895)">
          <path
             inkscape:connector-curvature="0"
             d="m 0,0 c 0,-1.359 -0.935,-3.846 -3.847,-3.846 -1.573,0 -2.762,0.893 -2.762,2.339 l 0,8.329 c 0,1.062 1.232,2.423 3.304,2.423 C -1.254,9.245 0,8.054 0,6.928 L 0,0 z m -3.229,10.52 c -3.295,0 -4.847,-1.935 -4.847,-3.635 l 0,-8.84 c 0,-1.254 1.404,-3.166 4.229,-3.166 2.827,0 3.591,1.424 3.699,1.615 0.105,0.192 0.232,0.171 0.232,-0.042 l 0,-1.116 c 0,-0.233 0.425,-0.35 0.702,-0.35 0.277,0 0.679,0.114 0.679,0.306 l 0,11.636 c 0,2.062 -2.082,3.592 -4.694,3.592"
             style="fill:#332d2b;fill-opacity:1;fill-rule:nonzero;stroke:none"
             id="path3263" />
        </g>
        <g
           id="g3265"
           transform="translate(520.8525,367.1504)">
          <path
             inkscape:connector-curvature="0"
             d="m 0,0 c 0,-0.213 -0.425,-0.376 -0.744,-0.376 -0.319,0 -0.765,0.148 -0.765,0.403 l 0,19.192 c 0,0.339 0.488,0.449 0.754,0.449 C -0.489,19.668 0,19.531 0,19.232 L 0,0 z"
             style="fill:#332d2b;fill-opacity:1;fill-rule:nonzero;stroke:none"
             id="path3267" />
        </g>
        <g
           id="g3269"
           transform="translate(524.9727,378.9082)">
          <path
             inkscape:connector-curvature="0"
             d="m 0,0 c 0,0.914 1.359,2.104 3.304,2.104 1.753,0 3.326,-1.041 3.326,-2.04 l 0,-3.273 c 0,-0.17 0.02,-0.34 -0.234,-0.34 l -6.141,0 C 0.105,-3.549 0,-3.377 0,-3.167 L 0,0 z m 0.275,-4.993 7.374,0 c 0.192,0 0.362,0.148 0.362,0.34 l 0,5.014 c 0,1.551 -2.252,3.017 -4.654,3.017 l -0.053,0 c -2.348,0 -4.707,-1.168 -4.707,-2.995 l 0,-9.413 c 0,-1.871 1.36,-3.104 4.802,-3.104 3.442,0 4.612,1.657 4.612,3.019 l 0,0.792 0,0.047 0,0.01 c 0,0.254 -0.447,0.383 -0.702,0.383 -0.255,0 -0.594,-0.106 -0.594,-0.361 l 0,-0.765 c 0,-0.68 -0.702,-1.807 -3.274,-1.807 -2.57,0 -3.441,0.957 -3.441,1.955 l 0,3.442 c 0,0.298 0.127,0.426 0.275,0.426"
             style="fill:#332d2b;fill-opacity:1;fill-rule:nonzero;stroke:none"
             id="path3271" />
        </g>
        <g
           id="g3273"
           transform="translate(540.6396,382.3979)">
          <path
             inkscape:connector-curvature="0"
             d="m 0,0 c 1.977,0 4.01,-1.471 4.01,-3.234 l 0,-1.021 c 0,-0.191 -0.383,-0.297 -0.659,-0.297 -0.277,0 -0.702,0.149 -0.702,0.34 l 0,0.808 c 0,0.446 -0.509,1.976 -2.719,1.976 -2.211,0 -3.76,-2.423 -3.76,-5.058 l 0,-8.773 c 0,-0.235 -0.426,-0.365 -0.724,-0.365 -0.297,0 -0.765,0.107 -0.765,0.403 l 0,14.73 c 0,0.234 0.446,0.38 0.787,0.38 0.339,0 0.722,-0.141 0.722,-0.397 l 0,-1.09 c 0,-0.17 0.149,-0.255 0.276,-0.064 C -3.407,-1.471 -2.083,0 0,0"
             style="fill:#332d2b;fill-opacity:1;fill-rule:nonzero;stroke:none"
             id="path3275" />
        </g>
        <g
           id="g3277"
           transform="translate(547.5283,382.1807)">
          <path
             inkscape:connector-curvature="0"
             d="m 0,0 c 0.362,0 0.776,-0.129 0.776,-0.405 l 0,-14.757 c 0,-0.234 -0.605,-0.329 -0.776,-0.329 -0.17,0 -0.775,0.123 -0.775,0.364 l 0,14.708 C -0.775,-0.164 -0.386,0 0,0"
             style="fill:#332d2b;fill-opacity:1;fill-rule:nonzero;stroke:none"
             id="path3279" />
        </g>
        <g
           id="g3281"
           transform="translate(548.709,385.5811)">
          <path
             inkscape:connector-curvature="0"
             d="m 0,0 c 0,-0.651 -0.529,-1.18 -1.18,-1.18 -0.652,0 -1.18,0.529 -1.18,1.18 0,0.651 0.528,1.179 1.18,1.179 C -0.529,1.179 0,0.651 0,0"
             style="fill:#332d2b;fill-opacity:1;fill-rule:nonzero;stroke:none"
             id="path3283" />
        </g>
        <g
           id="g3285"
           transform="translate(552.3428,375.3813)">
          <path
             inkscape:connector-curvature="0"
             d="m 0,0 0,3.251 c 0,1.402 1.487,2.273 3.166,2.273 1.678,0 3.251,-0.871 3.251,-2.379 l 0,-3.103 c 0,-0.17 0,-0.34 -0.276,-0.34 l -5.865,0 C 0.106,-0.298 0,-0.191 0,0 m 0.276,-1.743 7.267,0 c 0.213,0 0.298,0.191 0.298,0.362 l 0,4.334 c 0,2.528 -2.21,3.846 -4.611,3.846 -2.422,0 -4.74,-1.317 -4.74,-3.569 l 0,-8.35 c 0,-0.943 0.772,-3.883 4.853,-3.883 4.079,0 4.498,2.968 4.498,3.287 l 0,0.531 c 0,0.297 -0.45,0.446 -0.683,0.446 -0.234,0 -0.741,-0.086 -0.741,-0.468 0,-0.891 -0.701,-2.358 -3.081,-2.358 -2.38,0 -3.273,1.445 -3.273,2.528 l 0,2.933 c 0,0.234 0.085,0.361 0.213,0.361"
             style="fill:#332d2b;fill-opacity:1;fill-rule:nonzero;stroke:none"
             id="path3287" />
        </g>
        <g
           id="g3289"
           transform="translate(704.0073,412.7651)">
          <path
             inkscape:connector-curvature="0"
             d="m 0,0 c -8.838,0.163 -14.44,5.435 -14.44,5.435 0.828,0.751 1.321,1.274 1.366,1.307 0.132,0.096 0.167,0.255 0.294,0.092 2.046,-1.858 8.874,-5.788 16.319,-4.333 7.901,1.545 12.145,6.006 14.402,10.288 2.257,4.283 3.697,10.306 0.816,17.114 -2.873,6.792 -9.065,9.782 -11.707,10.766 -2.694,1.002 -9.193,1.891 -15.133,-1.154 -5.939,-3.043 -8.313,-7.215 -9.516,-10.163 -1.495,-3.857 -0.313,-6.841 -2.01,-10.956 -2.52,-6.327 -9.848,-7.715 -14.814,-5.478 -4.965,2.237 -6.139,6.878 -5.827,9.732 0.68,6.211 4.87,10.248 10.296,10.148 4.81,-0.088 9.48,-4.203 9.77,-4.374 0.289,-0.167 0.324,-0.006 0.36,0.124 0,0 1.356,3.901 3.506,6.795 0.167,0.224 0.203,0.419 -0.055,0.618 -1.154,0.899 -5.627,5.078 -14.075,5.234 -8.45,0.155 -18.886,-5.978 -18.886,-19.33 0,-12.846 10.899,-18.948 19.737,-19.109 8.84,-0.163 15.077,7.229 16.999,10.992 1.082,2.118 1.366,3.858 1.56,5.633 L -11.04,19.37 c 0.013,0.105 0.024,0.21 0.036,0.315 0.046,0.431 0.088,0.866 0.137,1.31 0.263,2.493 0.608,5.025 2.472,7.921 1.806,2.696 5.049,4.572 8.949,4.5 3.899,-0.071 11.379,-3.208 11.226,-11.527 -0.154,-8.32 -8.015,-10.956 -11.071,-10.9 -3.054,0.055 -6.789,1.337 -10.224,5.44 -0.141,0.247 -0.481,0.35 -0.587,-0.072 -0.105,-0.419 -1.304,-3.696 -1.704,-4.307 -0.118,-0.225 -0.2,-0.257 0.087,-0.602 0.286,-0.348 4.357,-5.201 12.156,-5.344 7.799,-0.143 16.057,6.92 16.217,15.694 0.161,8.774 -6.377,16.358 -16.278,16.358 -9.425,0 -13.911,-7.049 -15.013,-10.604 -1.102,-3.555 0.249,-7.391 -3.032,-12.533 -3.278,-5.142 -7.822,-6.885 -12.047,-6.807 -4.224,0.078 -14.285,3.065 -14.078,14.374 0.207,11.308 10.654,13.717 13.839,13.66 3.184,-0.061 7.227,-2.06 8.215,-2.738 0.168,-0.124 0.313,-0.152 0.464,0.042 0.15,0.192 0.553,0.915 0.628,1.061 0.076,0.144 0.151,0.289 -0.064,0.439 -0.218,0.15 -4.467,2.797 -9.277,2.886 -4.809,0.088 -15.691,-3.94 -15.691,-15.316 0,-10.705 8.076,-16.156 15.956,-16.156 7.738,0 12.18,5.415 13.974,8.55 2.686,4.696 1.582,9.028 2.661,11.998 0.815,2.24 4.6,9.813 13.568,9.647 8.97,-0.164 14.752,-7.421 14.62,-14.702 -0.136,-7.28 -6.313,-14.421 -14.7,-14.421 -6.119,0 -9.914,4.098 -10.081,4.296 -0.167,0.199 -0.431,0.325 -0.256,0.615 0.175,0.289 0.483,1.039 0.51,1.16 0.026,0.122 0.053,0.268 0.243,0.044 0.192,-0.222 3.928,-4.411 9.741,-4.411 6.479,0 12.843,5.272 12.979,12.616 0.135,7.344 -5.35,13.166 -13.149,13.311 -5.719,0.104 -10.212,-3.932 -11.99,-8.493 -1.446,-3.713 -0.365,-8.805 -3.168,-13.008 -3.271,-4.905 -9.07,-9.131 -15.049,-9.019 -5.979,0.108 -17.988,4.75 -17.745,17.944 0.21,11.372 10.589,17.162 17.544,17.035 6.953,-0.127 11.111,-3.876 11.303,-4.012 0.192,-0.133 0.189,-0.296 0.054,-0.552 -0.134,-0.257 -1.982,-3.508 -2.05,-3.668 -0.068,-0.163 -0.199,-0.226 -0.617,0.042 -0.418,0.267 -4.104,3.183 -8.653,3.183 -5.995,0 -12.116,-4.786 -12.25,-12.062 -0.133,-7.274 5.362,-12.516 12.64,-12.65 7.28,-0.134 10.803,5.438 12.096,8.901 1.286,3.446 0.282,6.944 1.8,10.391 1.294,2.938 6.788,10.679 16.152,10.679 10.01,0 17.943,-8.229 17.761,-18.174 C 18.03,11.762 9.002,3.997 0.272,4.157 c -8.732,0.16 -12.703,5.125 -13.099,5.441 -0.281,0.225 -0.324,0.469 -0.575,0.109 -0.25,-0.362 -5.551,-8.87 -16.762,-8.664 -11.211,0.207 -21.656,9.318 -21.445,20.863 0.213,11.547 9.792,21.579 21.003,21.373 10.14,-0.188 15.658,-5.881 15.851,-6.014 0.192,-0.135 0.354,-0.137 0.652,0.151 0.297,0.286 6.644,5.956 15.483,5.793 C 10.219,43.047 22.24,35.674 21.991,22.157 21.744,8.638 10.204,-0.187 0,0 m 1.545,45.091 c -9.198,0 -15.533,-5.013 -15.666,-5.173 -0.133,-0.16 -0.23,-0.158 -0.447,-0.056 0,0 -4.531,3.333 -8.317,4.314 -5.54,1.435 -11.698,2.002 -19.12,-2.086 -7.422,-4.09 -11.55,-12.337 -11.55,-20.008 0,-9.139 4.487,-15.848 11.917,-20.114 7.431,-4.263 14.435,-3.419 19.444,-1.528 2.308,0.871 4.397,2.258 5.992,3.509 4.566,-3.737 10.514,-6.19 15.851,-6.19 10.731,0 24.633,8.96 24.633,25.168 0,11.004 -9.658,22.164 -22.737,22.164"
             style="fill:#332d2b;fill-opacity:1;fill-rule:nonzero;stroke:none"
             id="path3291" />
        </g>
        <g
           id="g3293"
           transform="translate(655.3232,387.4434)">
          <path
             inkscape:connector-curvature="0"
             d="m 0,0 c 0,-0.639 -0.585,-1.615 -1.707,-1.615 -0.594,0 -1.669,0.286 -1.669,1.367 l 0,2.655 0,1.542 c 0,0.436 0.47,1.17 1.669,1.17 0.964,0 1.709,-0.543 1.709,-1.187 C 0.002,3.405 0,1.737 0,1.547 L 0,0 z m 0.798,3.774 c 0,0.646 -0.273,2.052 -2.521,2.052 -1.798,0 -2.388,-1.233 -2.388,-1.771 0,-0.437 -0.022,-2.084 -0.022,-2.185 0,-0.101 0.034,-2.325 0.034,-2.606 0,-0.536 0.617,-1.535 2.325,-1.535 1.317,0 1.76,0.679 1.798,0.74 0.04,0.062 0.101,0.039 0.101,-0.011 l 0,-0.471 c 0,-0.123 0.186,-0.174 0.342,-0.174 0.157,0 0.325,0.062 0.325,0.166 0,0.072 0.006,5.404 0.006,5.795"
             style="fill:#332d2b;fill-opacity:1;fill-rule:nonzero;stroke:none"
             id="path3295" />
        </g>
        <g
           id="g3297"
           transform="translate(658.1011,385.4287)">
          <path
             inkscape:connector-curvature="0"
             d="m 0,0 c 0,-0.12 -0.25,-0.183 -0.368,-0.183 -0.117,0 -0.37,0.056 -0.37,0.183 l 0,5.927 c 0,0.857 0.806,1.914 2.411,1.914 1.605,0 2.521,-1.011 2.521,-1.99 l 0,-5.849 c 0,-0.11 -0.262,-0.168 -0.396,-0.168 -0.135,0 -0.4,0.05 -0.4,0.174 C 3.398,0.1 3.38,5.347 3.38,5.784 3.38,6.222 3.093,7.179 1.728,7.179 0.51,7.179 0.017,6.38 0.017,5.901 0.017,5.422 0,0 0,0"
             style="fill:#332d2b;fill-opacity:1;fill-rule:nonzero;stroke:none"
             id="path3299" />
        </g>
        <g
           id="g3301"
           transform="translate(667.8604,387.3071)">
          <path
             inkscape:connector-curvature="0"
             d="m 0,0 c 0,-0.705 -0.628,-1.467 -1.754,-1.467 -1.128,0 -1.709,0.896 -1.709,1.344 l 0,3.978 c 0,0.818 0.717,1.418 1.709,1.418 C -0.82,5.273 0,4.718 0,3.709 L 0,0 z m -1.727,5.962 c -1.805,0 -2.476,-1.131 -2.476,-2.118 0,-0.604 0.044,-4.157 0.044,-4.157 0,-1.367 1.485,-1.85 2.534,-1.85 0.895,0 2.353,0.628 2.353,1.895 l 0,4.078 c 0,1.155 -0.909,2.152 -2.455,2.152"
             style="fill:#332d2b;fill-opacity:1;fill-rule:nonzero;stroke:none"
             id="path3303" />
        </g>
        <g
           id="g3305"
           transform="translate(675.5684,387.3071)">
          <path
             inkscape:connector-curvature="0"
             d="m 0,0 c 0,-0.515 -0.707,-1.411 -1.72,-1.411 -1.014,0 -1.682,0.616 -1.682,1.255 l 0,4.101 c 0,0.717 0.623,1.333 1.682,1.333 C -0.941,5.278 0,4.897 0,3.821 L 0,0 z m -1.637,5.962 c -1.78,0 -2.521,-0.886 -2.521,-1.861 l 0,-4.426 c 0,-1.065 1.244,-1.838 2.421,-1.838 1.177,0 1.614,0.718 1.67,0.773 0.056,0.057 0.078,0.045 0.078,-0.011 l 0,-0.508 c 0,-0.09 0.258,-0.141 0.36,-0.141 0.1,0 0.346,0.044 0.346,0.146 l 0,5.905 c 0,1.311 -1.087,1.961 -2.354,1.961"
             style="fill:#332d2b;fill-opacity:1;fill-rule:nonzero;stroke:none"
             id="path3307" />
        </g>
        <g
           id="g3309"
           transform="translate(679.9946,393.2695)">
          <path
             inkscape:connector-curvature="0"
             d="m 0,0 c 1.267,0 2.499,-0.628 2.499,-2.287 l 0,-5.559 c 0,-0.134 -0.288,-0.177 -0.399,-0.177 -0.112,0 -0.37,0.059 -0.37,0.205 l 0,5.497 c 0,0.561 -0.119,1.662 -1.676,1.662 -1.559,0 -1.708,-1.235 -1.708,-1.617 l 0,-5.558 c 0,-0.134 -0.275,-0.189 -0.397,-0.189 -0.124,0 -0.369,0.069 -0.369,0.203 l 0,5.544 C -2.42,-0.875 -1.524,0 0,0"
             style="fill:#332d2b;fill-opacity:1;fill-rule:nonzero;stroke:none"
             id="path3311" />
        </g>
        <g
           id="g3313"
           transform="translate(688.1299,387.2402)">
          <path
             inkscape:connector-curvature="0"
             d="m 0,0 c 0,-0.717 -0.863,-1.367 -1.776,-1.367 -0.914,0 -1.754,0.594 -1.754,1.322 l 0,3.967 c 0,0.751 0.661,1.434 1.754,1.434 C -0.909,5.356 0,4.729 0,3.922 L 0,0 z M -1.715,6.029 C -3.228,6.029 -4.27,4.986 -4.27,3.934 L -4.27,0 c 0,-1.064 1.076,-1.994 2.499,-1.994 1.423,0 2.489,0.772 2.489,1.994 l 0,3.934 c 0,1.041 -1.077,2.095 -2.433,2.095"
             style="fill:#332d2b;fill-opacity:1;fill-rule:nonzero;stroke:none"
             id="path3315" />
        </g>
        <g
           id="g3317"
           transform="translate(697.2314,387.4082)">
          <path
             inkscape:connector-curvature="0"
             d="m 0,0 c 0,-0.526 -0.651,-1.636 -1.905,-1.636 -1.255,0 -1.491,0.706 -1.491,1.11 l 0,4.381 c 0,0.93 0.807,1.333 1.698,1.333 C -0.819,5.188 0,4.729 0,3.833 L 0,0 z m -1.727,5.861 c -1.287,0 -2.431,-0.617 -2.431,-2.062 l 0,-4.561 c 0,-0.952 1.121,-1.625 2.286,-1.625 1.166,0 1.771,0.785 1.793,0.852 0.022,0.067 0.1,0.101 0.1,-0.023 l 0,-2.095 c 0,0 0.013,-1.514 -1.719,-1.514 -1.731,0 -1.686,1.42 -1.686,1.543 0,0.123 -0.101,0.251 -0.392,0.251 -0.292,0 -0.382,-0.178 -0.382,-0.269 l 0,-0.157 c 0,-1.192 1.087,-2.184 2.431,-2.184 1.48,0 2.488,0.964 2.488,2.263 l 0,7.486 c 0,1.489 -1.198,2.095 -2.488,2.095"
             style="fill:#332d2b;fill-opacity:1;fill-rule:nonzero;stroke:none"
             id="path3319" />
        </g>
        <g
           id="g3321"
           transform="translate(703.5625,387.7227)">
          <path
             inkscape:connector-curvature="0"
             d="m 0,0 c 0,-0.717 -0.493,-2.028 -2.029,-2.028 -0.829,0 -1.457,0.471 -1.457,1.232 l 0,4.393 c 0,0.56 0.651,1.277 1.743,1.277 C -0.662,4.874 0,4.246 0,3.653 L 0,0 z m -1.704,5.547 c -1.736,0 -2.554,-1.021 -2.554,-1.917 l 0,-4.661 c 0,-0.661 0.739,-1.67 2.229,-1.67 1.49,0 1.895,0.75 1.951,0.852 0.055,0.1 0.122,0.089 0.122,-0.023 l 0,-0.588 c 0,-0.123 0.225,-0.185 0.37,-0.185 0.146,0 0.359,0.06 0.359,0.162 l 0,6.136 c 0,1.086 -1.098,1.894 -2.477,1.894"
             style="fill:#332d2b;fill-opacity:1;fill-rule:nonzero;stroke:none"
             id="path3323" />
        </g>
        <g
           id="g3325"
           transform="translate(706.8096,385.2197)">
          <path
             inkscape:connector-curvature="0"
             d="m 0,0 c 0,-0.112 -0.224,-0.198 -0.391,-0.198 -0.169,0 -0.404,0.078 -0.404,0.212 l 0,10.12 c 0,0.18 0.258,0.238 0.398,0.238 0.14,0 0.397,-0.073 0.397,-0.23 L 0,0 z"
             style="fill:#332d2b;fill-opacity:1;fill-rule:nonzero;stroke:none"
             id="path3327" />
        </g>
        <g
           id="g3329"
           transform="translate(708.9819,391.4204)">
          <path
             inkscape:connector-curvature="0"
             d="m 0,0 c 0,0.481 0.718,1.109 1.743,1.109 0.924,0 1.753,-0.549 1.753,-1.075 l 0,-1.726 c 0,-0.09 0.012,-0.18 -0.122,-0.18 l -3.24,0 C 0.056,-1.872 0,-1.782 0,-1.67 L 0,0 z m 0.146,-2.634 3.889,0 c 0.1,0 0.19,0.079 0.19,0.18 l 0,2.644 c 0,0.819 -1.188,1.592 -2.454,1.592 l -0.028,0 c -1.238,0 -2.482,-0.617 -2.482,-1.58 l 0,-4.965 c 0,-0.986 0.717,-1.636 2.532,-1.636 1.815,0 2.432,0.875 2.432,1.592 l 0,0.418 0,0.025 0,0.004 c 0,0.135 -0.235,0.203 -0.37,0.203 -0.135,0 -0.313,-0.057 -0.313,-0.191 l 0,-0.403 C 3.542,-5.109 3.171,-5.704 1.815,-5.704 0.46,-5.704 0,-5.2 0,-4.672 l 0,1.814 c 0,0.158 0.068,0.224 0.146,0.224"
             style="fill:#332d2b;fill-opacity:1;fill-rule:nonzero;stroke:none"
             id="path3331" />
        </g>
        <g
           id="g3333"
           transform="translate(717.2446,393.2598)">
          <path
             inkscape:connector-curvature="0"
             d="m 0,0 c 1.042,0 2.114,-0.775 2.114,-1.705 l 0,-0.538 c 0,-0.101 -0.201,-0.157 -0.348,-0.157 -0.145,0 -0.37,0.079 -0.37,0.179 l 0,0.426 c 0,0.235 -0.269,1.043 -1.433,1.043 -1.166,0 -1.984,-1.277 -1.984,-2.667 l 0,-4.627 c 0,-0.123 -0.224,-0.192 -0.382,-0.192 -0.155,0 -0.403,0.056 -0.403,0.212 l 0,7.768 c 0,0.123 0.236,0.2 0.416,0.2 0.179,0 0.38,-0.074 0.38,-0.209 l 0,-0.575 c 0,-0.09 0.079,-0.135 0.147,-0.034 C -1.797,-0.775 -1.099,0 0,0"
             style="fill:#332d2b;fill-opacity:1;fill-rule:nonzero;stroke:none"
             id="path3335" />
        </g>
        <g
           id="g3337"
           transform="translate(720.877,393.146)">
          <path
             inkscape:connector-curvature="0"
             d="m 0,0 c 0.19,0 0.408,-0.068 0.408,-0.214 l 0,-7.782 C 0.408,-8.119 0.09,-8.168 0,-8.168 c -0.089,0 -0.409,0.063 -0.409,0.191 l 0,7.755 C -0.409,-0.086 -0.204,0 0,0"
             style="fill:#332d2b;fill-opacity:1;fill-rule:nonzero;stroke:none"
             id="path3339" />
        </g>
        <g
           id="g3341"
           transform="translate(721.4995,394.939)">
          <path
             inkscape:connector-curvature="0"
             d="m 0,0 c 0,-0.344 -0.279,-0.623 -0.623,-0.623 -0.343,0 -0.622,0.279 -0.622,0.623 0,0.343 0.279,0.621 0.622,0.621 C -0.279,0.621 0,0.343 0,0"
             style="fill:#332d2b;fill-opacity:1;fill-rule:nonzero;stroke:none"
             id="path3343" />
        </g>
        <g
           id="g3345"
           transform="translate(723.415,389.5605)">
          <path
             inkscape:connector-curvature="0"
             d="m 0,0 0,1.715 c 0,0.739 0.784,1.198 1.67,1.198 0.885,0 1.714,-0.459 1.714,-1.255 l 0,-1.636 c 0,-0.089 0,-0.179 -0.146,-0.179 l -3.091,0 C 0.056,-0.157 0,-0.101 0,0 m 0.147,-0.919 3.832,0 c 0.112,0 0.157,0.101 0.157,0.19 l 0,2.286 c 0,1.334 -1.166,2.028 -2.432,2.028 -1.278,0 -2.499,-0.694 -2.499,-1.881 l 0,-4.404 c 0,-0.497 0.407,-2.048 2.558,-2.048 2.152,0 2.373,1.566 2.373,1.733 l 0,0.281 c 0,0.156 -0.238,0.234 -0.362,0.234 -0.123,0 -0.39,-0.044 -0.39,-0.246 0,-0.47 -0.369,-1.244 -1.624,-1.244 -1.256,0 -1.726,0.762 -1.726,1.334 l 0,1.546 c 0,0.123 0.044,0.191 0.113,0.191"
             style="fill:#332d2b;fill-opacity:1;fill-rule:nonzero;stroke:none"
             id="path3347" />
        </g>
      </g>
    </g>
  </g>
</svg>
